<?xml version="1.0" encoding="UTF-8" standalone="no"?>
<!DOCTYPE svg PUBLIC "-//W3C//DTD SVG 1.1//EN" "http://www.w3.org/Graphics/SVG/1.1/DTD/svg11.dtd">
<svg version="1.1" xmlns="http://www.w3.org/2000/svg" xmlns:xlink="http://www.w3.org/1999/xlink" preserveAspectRatio="xMidYMid meet" viewBox="0 0 640 640" width="128" height="128"><defs><path d="M317.59 74.1L352.61 138.75L625.27 138.75L625.27 537.32L542.15 543.83L521.62 476.75L467.24 488.29L461.54 537.32L404.37 530.58L191.41 543.83L178.2 483.92L114.13 488.29L114.13 537.32L15.77 530.58C12.89 305.66 11.08 165.09 10.36 108.86C10.11 89.73 25.55 74.1 44.67 74.1C81.06 74.1 172.03 74.1 317.59 74.1Z" id="aALknBm9J"></path><path d="M32.75 97.04C29.85 99.93 28.05 103.89 28.05 108.19C28.05 114.88 28.05 148.34 28.05 208.55L28.05 307.48L28.05 407.03C28.05 468.34 28.05 502.41 28.05 509.22C28.05 512.29 30.03 515.25 32.88 517.63C37.07 521.15 42.63 523.23 47.48 523.23C50.81 523.23 67.45 523.23 97.4 523.23C97.4 499.76 97.4 486.73 97.4 484.12C97.4 476.38 103.68 470.1 111.42 470.1C118.95 470.1 179.17 470.1 186.7 470.1C194.44 470.1 200.72 476.38 200.72 484.12C200.72 486.73 200.72 499.76 200.72 523.23L448.26 523.23C448.26 499.76 448.26 486.73 448.26 484.12C448.26 476.38 454.53 470.1 462.28 470.1C469.74 470.1 529.47 470.1 536.93 470.1C544.68 470.1 550.95 476.38 550.95 484.12C550.95 486.73 550.95 499.76 550.95 523.23C579.13 523.23 594.79 523.23 597.92 523.23C601.63 523.23 605.12 521.6 607.71 519C610.31 516.41 611.95 512.92 611.95 509.21C611.95 474.74 611.95 198.93 611.95 164.46C611.95 160.58 610.38 157.08 607.84 154.54C605.31 152 601.8 150.43 597.92 150.43C571.93 150.43 363.95 150.43 337.95 150.43C330.21 150.43 323.93 144.15 323.93 136.41C323.93 125.3 323.92 112.12 320.5 103.1C318.15 96.89 313.26 92.34 303.28 92.34C285.99 92.34 199.53 92.34 43.91 92.34L43.91 92.33C38.4 93.54 34.68 95.11 32.75 97.04ZM562.16 367.85L562.16 395.08L357.31 395.08L357.31 367.85L357.31 367.85L562.16 367.85ZM562.16 225.51L562.16 252.73L357.31 252.73L357.31 225.51L357.31 225.51L562.16 225.51ZM562.16 296.69L562.16 323.91L357.31 323.91L357.31 296.69L357.31 296.69L562.16 296.69ZM137.54 233.01C125.73 236.03 126.28 268.39 139.42 268.39C143.46 268.32 162.21 295.56 164.97 300.1C170.32 308.91 164.97 312.15 164.97 318.17C107.51 331.12 90.93 336.92 90.93 395.07C97.62 395.07 131.09 395.07 191.34 395.07C251.58 395.07 285.05 395.07 291.74 395.07C291.74 336.92 275.16 331.13 217.7 318.17C217.7 311 212.96 307.91 217.7 300.1C223.06 291.29 232.86 278.95 242.94 268.38C256.79 268.65 257.14 236.07 245.13 233.01C245.13 230.67 245.13 211.91 245.13 209.57C245.13 153.09 137.54 153.09 137.54 209.57C137.54 209.57 137.54 209.57 137.54 209.57C137.54 223.64 137.54 231.45 137.54 233.01ZM43.91 64.29C69.85 64.29 277.34 64.29 303.28 64.29C327.9 64.29 340.35 76.53 346.68 93.24C350.2 102.53 351.38 112.68 351.78 122.38C376.39 122.38 573.31 122.38 597.93 122.38C609.55 122.38 620.07 127.09 627.68 134.71C635.3 142.32 640 152.84 640 164.46C640 198.93 640 474.75 640 509.22C640 520.67 635.19 531.21 627.55 538.85C619.91 546.48 609.38 551.29 597.92 551.29C591.82 551.29 543.03 551.29 536.93 551.29C529.19 551.29 522.91 545.01 522.91 537.28C522.91 534.67 522.91 521.63 522.91 498.16L476.3 498.16C476.3 521.63 476.3 534.67 476.3 537.28C476.3 545.01 470.03 551.29 462.28 551.29C434.72 551.29 214.26 551.29 186.7 551.29C178.95 551.29 172.67 545.01 172.67 537.28C172.67 534.67 172.67 521.63 172.67 498.16L125.45 498.16C125.45 521.63 125.45 534.67 125.45 537.28C125.45 545.01 119.17 551.29 111.43 551.29C105.03 551.29 53.87 551.29 47.48 551.29C36.42 551.29 24.02 546.75 14.91 539.11C6.1 531.73 0 521.45 0 509.22C0 502.41 0 468.35 0 407.03L0 307.48L0 208.55C0 148.34 0 114.88 0 108.19C0 96.15 4.96 85.16 12.92 77.21C12.92 77.21 12.92 77.21 12.92 77.21C25.55 68.59 35.88 64.29 43.91 64.29Z" id="b9hQJJlI9"></path></defs><g><g><g><use xlink:href="#aALknBm9J" opacity="1" fill="#6780d1" fill-opacity="1"></use></g><g><use xlink:href="#b9hQJJlI9" opacity="1" fill="#000000" fill-opacity="1"></use><g><use xlink:href="#b9hQJJlI9" opacity="1" fill-opacity="0" stroke="#000000" stroke-width="0" stroke-opacity="0"></use></g></g></g></g></svg>